<?xml version="1.0" encoding="UTF-8" standalone="no"?>
<svg id="svg4150" xmlns:rdf="http://www.w3.org/1999/02/22-rdf-syntax-ns#" xmlns="http://www.w3.org/2000/svg" height="220.8mm" width="169.33mm" version="1.1" xmlns:cc="http://creativecommons.org/ns#" xmlns:dc="http://purl.org/dc/elements/1.1/" viewBox="0 0 599.99998 782.35978">
<g id="layer1" transform="translate(-182.4 77.355)">
<path id="path4709" d="m689.73 700.91c-8.87-4.9523-21.593-12.787-47.421-29.201-39.553-25.137-105.34-53.809-138.6-60.408-3.5009-0.69458-17.4-4.4674-30.886-8.384s-35.992-9.5139-50.013-12.438c-69.672-14.533-90.851-20.546-132.79-37.704-82.67-33.82-131.4-103.75-95.845-137.54 15.119-14.37 34.53-4.0053 20.196 10.783-36.198 37.347 61.74 75.414 105.21 40.892 54.93-43.63 52.68-102-6.27-162.01-78.18-79.58-100.43-141.31-82.61-229.15 19.161-94.443 95.379-152.18 202.08-153.09 36.353-0.30786 53.102 3.5319 105.83 24.261 52.985 20.831 53.219 21.232 28.616 49.031-9.1856 10.379-22.091 25.827-28.679 34.329-6.5878 8.5022-18.23 22.415-25.872 30.917-12.898 14.349-19.311 22.035-55.395 66.381-7.3251 9.0024-17.831 19.619-23.347 23.592-25.576 18.423-22.209 40.196 7.6668 49.583 11.422 3.5888 13.849 5.7689 112.5 101.08 63.315 61.165 62.865 60.457 41.289 64.936-23.606 4.9006-33.189 24.759-34.801 72.122-1.382 40.591 2.9622 49.685 41.555 86.989 90.272 87.258 141.86 179.13 100.59 179.13-3.121 0-8.9727-1.8414-13.004-4.092zm-7.79-26.15c0-13.685-61.12-53.834-118.21-77.652-15.504-6.4681-32.052-13.442-36.772-15.497-17.379-7.5664-104.32-29.934-132.36-34.054-4.5012-0.66123-18.823-3.5159-31.827-6.3436-31.017-6.7452-49.104-7.7303-49.104-2.6745 0 4.7688 11.417 9.0049 41.829 15.52 13.003 2.7856 33.054 7.2001 44.557 9.81s28.689 6.4688 38.192 8.5753c9.5025 2.1065 24.234 6.1654 32.736 9.0198 8.5022 2.8544 23.894 7.7254 34.204 10.824 54.308 16.324 108.51 42.803 145.07 70.875 18.942 14.542 31.686 19.206 31.686 11.596zm-82.44-355.77c-73.89-73.81-135.41-131.11-143.76-133.9-15.043-5.0348-15.688-5.4502-15.688-10.093 0-3.2334 2.1735-6.0154 7.7293-9.8933 10.407-7.2644 33.048-30.795 45.723-47.521 5.6851-7.502 13.784-17.81 17.998-22.907 8.0292-9.7119 45.56-55.947 77.158-95.052 10.216-12.643 24.242-30.353 31.171-39.355 31.904-41.455 39.408-41.382 42.193 0.415 0.8512 12.775 2.1013 26.283 2.7779 30.017 1.7195 9.4899-1.8793 16.903-11.378 23.439-4.3939 3.0231-14.333 11.371-22.086 18.551-7.7535 7.18-27.98 25.318-44.949 40.306-16.968 14.988-36.683 32.584-43.81 39.101-7.1269 6.5176-23.418 21.262-36.204 32.765-33.231 29.899-28.89 28.175-28.89 32.205 0 4.3931 12.815 15.17 21.824 18.352 4.5673 1.6135 41.481 5.0983 142.61 7.034 169.49 3.244 155.94-2.2239 111.63 45.052-15.883 16.944-40.621 43.951-54.973 60.016-58.65 65.647-46.281 64.214-99.075 11.477zm120.48-133.06c-0.41678-0.41502-47.816-1.2742-105.33-1.9093-57.515-0.63509-106.01-1.5783-107.76-2.096-10.165-3.0061 4.2746-17.852 103.27-106.18 12.892-11.503 30.598-27.666 39.345-35.919 19.478-18.375 23.88-19.363 32.404-7.2746 6.8109 9.6589 28.776 40.179 46.137 64.108 36.944 50.919 53.813 79.805 50.954 87.254-0.9968 2.5976-56.533 4.4936-59.022 2.015zm-122.06-19.614c6.257-6.257-6.1618-30.745-16.967-33.457-16.332-4.0991-18 21.791-2.1205 32.913 4.6669 3.2688 16.039 3.5931 19.088 0.54423zm57.095-2.4124c4.7873-10.507-30.299-60.877-42.406-60.877-17.477 0-9.8487 22.689 19.414 57.742 8.0839 9.6837 19.311 11.214 22.992 3.1345zm57.48 0.59378c4.8415-4.8415 2.1995-12.267-11.343-31.88-7.439-10.774-19.73-28.82-27.314-40.103-15.205-22.622-19.93-26.35-27.286-21.531-9.4348 6.1819-7.0689 12.872 17.429 49.283 30.311 45.05 39.404 53.34 48.513 44.231z"/>
</g>
</svg>
